# xmcd
#
# Track frame offsets: 
#        150
#        11553
#        23543
#        33048
#        47055
#        56871
#        70570
#        82078
#        95321
#        104404
#        113849
#        125461
#        140466
#        155119
#        168728
#        177673
#        191263
#        203606
#
# Disc length: 2930 seconds
#
# Revision: 0
# Processed by: cddbd v1.4PL0 Copyright (c) Steve Scherf et al.
# Submitted via: ExactAudioCopy v0.90b4
#
DISCID=f00b7012
DTITLE=Willie Nelson - Touch Me
DYEAR=2000
DGENRE=Country
TTITLE0=Touch Me
TTITLE1=Happiness Lives Next Door
TTITLE2=I'm Building Heartaches
TTITLE3=Will You Remember Mine
TTITLE4=Let's Pretend
TTITLE5=A Moment Isn't Very Long
TTITLE6=Suffering In Silence
TTITLE7=I Just Don't Understand
TTITLE8=Right From Wrong
TTITLE9=One Step Beyond
TTITLE10=Is There Something On Your Mind
TTITLE11=Face Of A Fighter
TTITLE12=What Can You Do To Me Now
TTITLE13=Everything But You
TTITLE14=Why Are You Picking On Me
TTITLE15=You'll Always Have Someone
TTITLE16=I Can't Find The Time
TTITLE17=Pretty Paper
EXTD=
EXTT0=
EXTT1=
EXTT2=
EXTT3=
EXTT4=
EXTT5=
EXTT6=
EXTT7=
EXTT8=
EXTT9=
EXTT10=
EXTT11=
EXTT12=
EXTT13=
EXTT14=
EXTT15=
EXTT16=
EXTT17=
PLAYORDER=
